# xmcd
#
# Track frame offsets: 
#        150
#        20547
#        42902
#        60523
#        91762
#        112358
#        122259
#        142215
#        173358
#        189243
#        220024
#        240950
#        255183
#
# Disc length: 3648 seconds
#
# Revision: 1
# Processed by: cddbd v1.5.2PL0 Copyright (c) Steve Scherf et al.
# Submitted via: ExactAudioCopy v1.0b3
#
DISCID=9f0e3e0d
DTITLE=Theodolis Ealey - Raw
DYEAR=1998
DGENRE=Blues
TTITLE0=Meet Me In The Morning
TTITLE1=What Poor Theo Gonna Do With Myself
TTITLE2=Stagger Lee
TTITLE3=Funny How Time Slips Away
TTITLE4=453-BLUE
TTITLE5=I've Got the Blues
TTITLE6=You're Killin' My Love
TTITLE7=All My Baby Left Me Was A Note, My Guitar, and a Cookie Jar
TTITLE8=Walkin' Blues
TTITLE9=Since I Met You Baby
TTITLE10=Got To Ya Baby
TTITLE11=A Song For My Daughter
TTITLE12=Funny How Time Slips Away (Single Edit)
EXTD=YEAR: 1998 ID3G: 0
EXTT0=
EXTT1=
EXTT2=
EXTT3=
EXTT4=
EXTT5=
EXTT6=
EXTT7=
EXTT8=
EXTT9=
EXTT10=
EXTT11=
EXTT12=
PLAYORDER=
